<mxfile host="app.diagrams.net" modified="2023-05-29T19:17:02.250Z" agent="Mozilla/5.0 (Windows NT 10.0; Win64; x64) AppleWebKit/537.36 (KHTML, like Gecko) Chrome/113.0.0.0 Safari/537.36" etag="RTfgM603MgzAwbG-e4Nm" version="21.2.7" type="device">
  <diagram id="MI2b_Vi7NT_OiPrm1NsH" name="Page-1">
    <mxGraphModel dx="882" dy="596" grid="1" gridSize="10" guides="1" tooltips="1" connect="1" arrows="1" fold="1" page="1" pageScale="1" pageWidth="850" pageHeight="1100" math="0" shadow="0">
      <root>
        <mxCell id="0" />
        <mxCell id="1" parent="0" />
        <mxCell id="66lLgdjDZr0tK8ZnFmY7-6" style="edgeStyle=orthogonalEdgeStyle;rounded=0;orthogonalLoop=1;jettySize=auto;html=1;exitX=1;exitY=0.5;exitDx=0;exitDy=0;entryX=0;entryY=0.5;entryDx=0;entryDy=0;" parent="1" source="66lLgdjDZr0tK8ZnFmY7-1" target="66lLgdjDZr0tK8ZnFmY7-2" edge="1">
          <mxGeometry relative="1" as="geometry" />
        </mxCell>
        <mxCell id="66lLgdjDZr0tK8ZnFmY7-1" value="User" style="rounded=1;whiteSpace=wrap;html=1;" parent="1" vertex="1">
          <mxGeometry x="80" y="120" width="120" height="60" as="geometry" />
        </mxCell>
        <mxCell id="66lLgdjDZr0tK8ZnFmY7-7" style="edgeStyle=orthogonalEdgeStyle;rounded=0;orthogonalLoop=1;jettySize=auto;html=1;exitX=1;exitY=0.5;exitDx=0;exitDy=0;entryX=0;entryY=0.5;entryDx=0;entryDy=0;" parent="1" source="66lLgdjDZr0tK8ZnFmY7-2" target="66lLgdjDZr0tK8ZnFmY7-3" edge="1">
          <mxGeometry relative="1" as="geometry" />
        </mxCell>
        <mxCell id="66lLgdjDZr0tK8ZnFmY7-2" value="Load balancer" style="rounded=1;whiteSpace=wrap;html=1;" parent="1" vertex="1">
          <mxGeometry x="280" y="120" width="120" height="60" as="geometry" />
        </mxCell>
        <mxCell id="5ZgNMpDD4FpVIqH2t2sP-2" style="edgeStyle=orthogonalEdgeStyle;rounded=0;orthogonalLoop=1;jettySize=auto;html=1;exitX=0.5;exitY=1;exitDx=0;exitDy=0;" edge="1" parent="1" source="66lLgdjDZr0tK8ZnFmY7-3" target="66lLgdjDZr0tK8ZnFmY7-5">
          <mxGeometry relative="1" as="geometry" />
        </mxCell>
        <mxCell id="66lLgdjDZr0tK8ZnFmY7-3" value="Cache client" style="rounded=1;whiteSpace=wrap;html=1;" parent="1" vertex="1">
          <mxGeometry x="480" y="120" width="120" height="60" as="geometry" />
        </mxCell>
        <mxCell id="5ZgNMpDD4FpVIqH2t2sP-3" style="edgeStyle=orthogonalEdgeStyle;rounded=0;orthogonalLoop=1;jettySize=auto;html=1;exitX=0;exitY=0.5;exitDx=0;exitDy=0;" edge="1" parent="1" source="66lLgdjDZr0tK8ZnFmY7-5" target="5ZgNMpDD4FpVIqH2t2sP-1">
          <mxGeometry relative="1" as="geometry" />
        </mxCell>
        <mxCell id="66lLgdjDZr0tK8ZnFmY7-5" value="Cache server" style="rounded=1;whiteSpace=wrap;html=1;" parent="1" vertex="1">
          <mxGeometry x="480" y="240" width="120" height="60" as="geometry" />
        </mxCell>
        <mxCell id="5ZgNMpDD4FpVIqH2t2sP-4" style="edgeStyle=orthogonalEdgeStyle;rounded=0;orthogonalLoop=1;jettySize=auto;html=1;exitX=1;exitY=0.5;exitDx=0;exitDy=0;entryX=0;entryY=0.5;entryDx=0;entryDy=0;" edge="1" parent="1" source="5ZgNMpDD4FpVIqH2t2sP-1" target="66lLgdjDZr0tK8ZnFmY7-5">
          <mxGeometry relative="1" as="geometry" />
        </mxCell>
        <mxCell id="5ZgNMpDD4FpVIqH2t2sP-1" value="DB" style="rounded=1;whiteSpace=wrap;html=1;" vertex="1" parent="1">
          <mxGeometry x="280" y="240" width="120" height="60" as="geometry" />
        </mxCell>
      </root>
    </mxGraphModel>
  </diagram>
</mxfile>
